<svg xmlns="http://www.w3.org/2000/svg" xmlns:xlink="http://www.w3.org/1999/xlink" viewBox="0 0 402 376"><defs><style>.a{fill:none;}.b{clip-path:url(#a);}.c{fill:#b8ccd1;}.d{fill:url(#b);}</style><clipPath id="a"><rect class="a" x="-6525" y="2" width="5620" height="2427.94"/></clipPath><linearGradient id="b" x1="196.88" y1="279" x2="196.88" y2="215.29" gradientUnits="userSpaceOnUse"><stop offset="0" stop-color="#0b4526" stop-opacity="0"/><stop offset="0.01" stop-color="#0f482a" stop-opacity="0.01"/><stop offset="0.11" stop-color="#59806b" stop-opacity="0.13"/><stop offset="0.23" stop-color="#95aea1" stop-opacity="0.23"/><stop offset="0.35" stop-color="#c5d2cb" stop-opacity="0.3"/><stop offset="0.5" stop-color="#e6ece9" stop-opacity="0.36"/><stop offset="0.68" stop-color="#f9fbfa" stop-opacity="0.39"/><stop offset="1" stop-color="#fff" stop-opacity="0.4"/></linearGradient></defs><g class="b"><path class="c" d="M-4713.3,1346s-1.1,67-33.9,72c-51.8,7.9-154.5-34.6-158.2-35-1.3-.1-8.7-34.5-9.5-33.1s-3.2.7-3.9.4a.5.5,0,0,0-.7.3c-3.2,8-2.6,33.2-20.7,34.4-14.9,1-22.7-.7-28.8,3s-11,19-13.6,23.7-5.6,9.5-12.5,9.1a14.1,14.1,0,0,1-6.5-2.3c-4.3-3-6.8-7.6-9.3-12l-5.9-10.8a5.2,5.2,0,0,0-2.2-2.4,4.6,4.6,0,0,0-2.6-.2c-7,.8-14.1,2-21.2,1.8s-17.9-.5-22.7-6.9c-7.3-9.6.1-24.9-4.9-35.1a23.4,23.4,0,0,0-2.5-3.9c-6.9-10.2-5.1-29.4-16-36.2a14.3,14.3,0,0,0-9-2,37.2,37.2,0,0,1-19.1-3.7c-2-1-4.1-2.3-5.1-4.3s-.6-5.6,0-8.4c2.2-9.1,4.4-18.2,6.5-27.3a15.4,15.4,0,0,0-6.5-16.2l-14.5-9.8c-14.6-10.7-33.7-11.6-51.1-13.8-20.5-2.6-41.2-4.2-61.9-5.3l-126.5-104.3-51.7-8.2h-132.9a307.5,307.5,0,0,1-91.8-14.1l-100.6-31.6a299.5,299.5,0,0,0-59.2-12.3l-9.4-1.1c-103.1-11-192.8-73.8-241.1-166a76,76,0,0,0-14.2-19.1l-43.3-42.1a74.9,74.9,0,0,0-80.3-16,75,75,0,0,1-85.2-21l-46.7-54.7-97-110.3c-4.3-5-8.5-10.1-12.5-15.3l-6-7.8a298.5,298.5,0,0,1-61.6-181.6l-7.1-47.6a72.4,72.4,0,0,0-71.5-61.9h-22.3a72.2,72.2,0,0,0-57,27.9l-20.4,26.3A170.1,170.1,0,0,0-6721.6,492a170.8,170.8,0,0,0,20.8,58.8l15.9,27.5a171,171,0,0,1,21.5,64.4l25.7,209.3-.6,26.3c-.4,13.8,18.9,17.2,23.3,4.1l.4-1.2a29.7,29.7,0,0,0,1.5-9.3V840.1l.9-13.7a29.5,29.5,0,0,1,30.9-27.7h.2a29.5,29.5,0,0,1,27.8,26.5l5.1,49.6a31.8,31.8,0,0,1-.5,9.2l-16.6,78.7a34.7,34.7,0,0,1-5.8,13l-3.5,5a34.7,34.7,0,0,0-1.2,38.9,94.9,94.9,0,0,0,50.7,39.1,89.7,89.7,0,0,0,10.5,2.7l45.4,9.2a96.1,96.1,0,0,0,18.6,1.8h56.7c8.6,0,15.2-7,15.4-15.6a15.4,15.4,0,0,1,13.3-15.1l32.7-4.3a105.4,105.4,0,0,0,71.6-43l19.4-27.3a92.1,92.1,0,0,1,22-21.6l57.9-40a21.8,21.8,0,0,1,13-4.1,21.5,21.5,0,0,1,18.9,30.9l-12.6,26.4a25.4,25.4,0,0,0-1.9,6.1l-13.3,88.3a128.7,128.7,0,0,0-.1,38.7l8.7,58.4a49,49,0,0,0,40.3,41.3l16.8,2.8a181,181,0,0,1,64.2,24l41.6,25.4a181.2,181.2,0,0,1,64.6,67.5,182.9,182.9,0,0,1,19.6,122.2l-.7,4.1a182.7,182.7,0,0,1-54.8,99.7l-80.6,75.4a8.3,8.3,0,0,1-13.8-5.4c-.8-8.8-12.9-10.4-16-2.1l-23.3,62.3-28,78c-7.2,20-27.8,32.3-48.6,28.2a42.7,42.7,0,0,0-49,28.7l-6.1,18.6a42.7,42.7,0,0,1-40.6,29.6h-68.1a64,64,0,0,0-60.2,41.9,64.4,64.4,0,0,1-60.5,42.4h-59.2c-61.5,0-120.1,22.8-168,61.6a16.1,16.1,0,0,1-3,2.1l-99.6,56.2a23.6,23.6,0,0,1-9.2,2.9,21.8,21.8,0,0,1-23.6-21.8V-818.4h623l-63.9,144.5-76.7,41.8-3.1,147.7,95.8,25.7v61l73.5,73.9,159.8-57.8,54.3-106,3.2-89.9-35.2-41.8,54.3-32.1v-52.4l1067.2-31.1H-555.3l43.1,76.1,8.9,14.2a223.2,223.2,0,0,0,172,104.1l10.1.7c38.8,3,75.1-22,84.1-60a24.3,24.3,0,0,1,30.8-17.7c10.9,3.3,17.9,14.2,17.1,25.6l-9.2,126.3c-2.4,33.3-15,65.2-36.9,90.3a123.4,123.4,0,0,0-23.3,122.1l4.7,13.1a23.9,23.9,0,0,0,10.8,13l146.6,84.5A106.2,106.2,0,0,1-45.8-72.7l5.6,26.2c6.5,30.7,28.8,55.1,58.1,66.4a24.2,24.2,0,0,1,11.2,8.8L77.2,98a306.7,306.7,0,0,1,54.6,174.6V760.8c0,95.2-52.2,181.7-134.6,228.6a84.3,84.3,0,0,0-36.9,42.9l-37.9,98.8a84.2,84.2,0,0,1-25.5,35.1l-302.6,142.4a83.9,83.9,0,0,1-9.2,6.4l-159.3,97.1a28.7,28.7,0,0,1-6.7,3l-86.1,26.2a29.5,29.5,0,0,0-20.8,28.2v58.1a29.6,29.6,0,0,1-7.1,19.2l-5.3,6.1a29.2,29.2,0,0,1-48.4-5.8,31.1,31.1,0,0,1-3.1-12.4l-1.7-34.8a29.4,29.4,0,0,0-29.9-28.1l-21.6.4a230,230,0,0,0-181,94.8l-75.7,104.3a160.4,160.4,0,0,0-18.3,32.6l-20.3,48.8c-20,47.9-9.3,102.8,26.1,140.6a141.6,141.6,0,0,1,9.3,11.2l95.9,128.4,53.4,76.8a57.2,57.2,0,0,0,46.6,24.1,56.3,56.3,0,0,1,40.5,17.7l38.6,40.9a56.7,56.7,0,0,1,12.3,20l47.3,133.9c1.5,4.1,3.1,8.2,4.9,12.2l16.7,38a178.7,178.7,0,0,1,1,141.1l-4.9,11.8a63.9,63.9,0,0,1-5,9.3l-117.6,177.2-40.1,80.7-80,86.2c-8.6,9.2-20.5,14.8-33,14.7a45,45,0,0,0-42.1,28.7l-21.1,53.7a44.9,44.9,0,0,1-41.7,28.6c-18.1.1-32.6-15.1-32.1-33.4l2.4-84.3,2.8-55a11.9,11.9,0,0,0-7.8-12l-66.9-25.2a11.8,11.8,0,0,0-9.9.6l-20.9,11.3a12.1,12.1,0,0,1-17.8-10.7,12.1,12.1,0,0,0-15.8-11.5c-42.6,13.7-88-11.1-99.7-54.6-9.3-34.7-35.5-62.3-69.1-74.6l-93.1-34a56.2,56.2,0,0,1-36.8-52.8v-1h-23.7a74.6,74.6,0,0,0-62.1,33.4,75.1,75.1,0,0,0-10.5,58.9l7.6,32a194.4,194.4,0,0,1-11.9,124l-48.9,109.2a9.5,9.5,0,0,0-.9,5l9,92.7a9.7,9.7,0,0,0,9.7,8.9h24.4a9.8,9.8,0,0,1,9.2,6.5l30.4,84a9.9,9.9,0,0,0,17.9,1.4,9.8,9.8,0,0,1,17.9,1.6l17.6,52.9c12.6,38-10.2,78.7-49,87.6l-10.6,2.4a62.8,62.8,0,0,1-15,1.7h-20.5a63.2,63.2,0,0,1-62.8-69.3,9.7,9.7,0,0,0-3.1-8.1l-35.1-32.9a10.6,10.6,0,0,0-10.7-2.3l-7.3,2.4a10.8,10.8,0,0,0-7.3,10.2v26.1a11.3,11.3,0,0,1-4.4,9.1,10.7,10.7,0,0,1-17-8.3l-3.1-85.2a9,9,0,0,1,.5-3.6l44.2-139.4a35.7,35.7,0,0,0-5.3-31.6,34.6,34.6,0,0,1-6.1-27.2l13.3-69.8a54.9,54.9,0,0,0,.5-16.2l-8-62.6a53.2,53.2,0,0,0-11.1-25.9,51.5,51.5,0,0,1-10-41.2l2.7-14.2a52.1,52.1,0,0,0-3-29.2l-87.6-212.2-33.6-149.1-55.3-122.5a8,8,0,0,0-15.3,2.4v46.6a8,8,0,0,1-5.7,7.7l-35.4,10.5a8,8,0,0,0-5,11.1l7.3,15.8a8.1,8.1,0,0,1-4.4,10.9l-27.3,10.6-63.7,56.1-18.1,17.5a37.1,37.1,0,0,1-37.4,8.7l-8.4-2.7a36.7,36.7,0,0,0-11.4-1.8H-2240a38.2,38.2,0,0,1-22.4-7.1,37.5,37.5,0,0,1-14-40.9l20.6-70.5a162.7,162.7,0,0,0,3.3-77.2l-19.1-95.1a22.2,22.2,0,0,0-1.2-3.9l-29.5-70.9a20.2,20.2,0,0,0-25.1-11.6,20.5,20.5,0,0,1-21.8-5.8l-12.5-14.2a20.4,20.4,0,0,1-5.1-12.6l-1.4-30.5a20.2,20.2,0,0,0-10.6-17l-44.5-24.6a62.7,62.7,0,0,1-8.7-5.8l-54.4-43.3a65.1,65.1,0,0,0-17-9.7,62.4,62.4,0,0,1-37.4-42.1l-30.9-74.8-109.9-27.3-13.9-49.9a31,31,0,0,1-5.9-20.2l-9.3-47.9-5.6,14.4a28.8,28.8,0,0,1-43.9,8.3l-10.8-9.1c-13.6-11.4-33.2-9-43,5.7a29.3,29.3,0,0,0-2.4,28.2l13.3,29.4a29.5,29.5,0,0,1,1.7,5l9.7,73.6a6.5,6.5,0,0,1-10.8,6.2l-37.5-37.3c-8.7-8.6-25.6-69-37.8-69l5.3,55.6a46.1,46.1,0,0,1-24.9-7.3l-11.2-7.1c-44.3-44.8-48.9,27.8-90.8,7l-6.5-69.1c-20.8,0-145.4,51-162.5,62.7l9.6-13.3c-4.9,3.4-7-.6-12.4,1.9l-19-7.4c-5.2,2.4-6.5,10-12,11.5l45.9,14.7a18.9,18.9,0,0,1-23.7-18.3v-245l-606.9-197.1Z"/></g><path class="d" d="M32.2,276.8c12.5-1,24.2-9,33.2-22.3,6.8-9.9,16.7-18.7,28.8-12.9,23.7,11.3,27.6,22,42.4,18.4s25.3-29.7,43.9-23.2,18.3,22,40.1-7.1,61.9-7.7,71.2,8.3,32.7,31.5,49.4,31.5,45.2,9.5,45.2,9.5H7.4Z"/></svg>