<svg xmlns="http://www.w3.org/2000/svg" xmlns:xlink="http://www.w3.org/1999/xlink" viewBox="0 0 520 529.9"><defs><style>.a{fill:none;}.b{clip-path:url(#a);}.c{fill:#b8ccd1;}.d{fill:url(#b);}.e{fill:url(#e);}.f{fill:#fff;}</style><clipPath id="a"><rect class="a" x="-6502.5" y="-1567.1" width="5620" height="2427.94"/></clipPath><linearGradient id="b" x1="194.81" y1="530.93" x2="194.81" y2="295.39" gradientUnits="userSpaceOnUse"><stop offset="0" stop-color="#fff" stop-opacity="0"/><stop offset="1" stop-color="#754c29"/></linearGradient><linearGradient id="e" x1="375.97" y1="530.93" x2="375.97" y2="372.91" xlink:href="#b"/></defs><g class="b"><path class="c" d="M-4690.8-223.1s-1.1,67.1-33.9,72c-51.8,7.9-154.5-34.6-158.2-35-1.3-.1-8.7-34.5-9.5-33.1s-3.2.7-3.9.4a.5.5,0,0,0-.7.3c-3.2,8-2.6,33.2-20.7,34.4-14.9,1-22.7-.7-28.8,3s-11,19-13.6,23.7-5.6,9.6-12.5,9.1a13.1,13.1,0,0,1-6.5-2.3c-4.3-3-6.8-7.5-9.3-12l-5.9-10.8c-.6-.9-1.2-2-2.2-2.4a4.6,4.6,0,0,0-2.6-.2c-7,.9-14.1,2-21.2,1.9s-17.9-.6-22.7-7c-7.3-9.5.1-24.8-4.9-35a19.9,19.9,0,0,0-2.5-3.9c-6.9-10.2-5.1-29.5-16-36.3a15,15,0,0,0-9-2,38.2,38.2,0,0,1-19.1-3.6c-2-1-4.1-2.3-5.1-4.3s-.6-5.7,0-8.5c2.2-9.1,4.4-18.2,6.5-27.3a15.4,15.4,0,0,0-6.5-16.2c-6.1-4-13.3-8.9-14.5-9.8-14.6-10.7-33.7-11.6-51.1-13.8-20.5-2.6-41.2-4.2-61.9-5.3l-126.5-104.3-51.7-8.2h-132.9a304.3,304.3,0,0,1-91.8-14.1l-100.6-31.6a306.8,306.8,0,0,0-59.2-12.3l-9.4-1c-103.1-11.1-192.8-73.9-241.1-166a74.2,74.2,0,0,0-14.2-19.1l-43.3-42.2a74.8,74.8,0,0,0-80.3-15.9,75.2,75.2,0,0,1-85.2-21l-46.7-54.8-97-110.3c-4.3-4.9-8.5-10-12.5-15.3l-6-7.7a298.7,298.7,0,0,1-61.6-181.6l-7.1-47.7a72.4,72.4,0,0,0-71.5-61.9H-6588a72,72,0,0,0-57,28l-20.4,26.2a170.4,170.4,0,0,0-33.7,130.9,170.3,170.3,0,0,0,20.8,58.7l15.9,27.5a171,171,0,0,1,21.5,64.4l25.7,209.4-.6,26.2c-.4,13.8,18.9,17.3,23.3,4.2l.4-1.2a30.3,30.3,0,0,0,1.5-9.4v-31.7l.9-13.7a29.5,29.5,0,0,1,30.9-27.8h.2a29.6,29.6,0,0,1,27.8,26.6l5.1,49.5a31.5,31.5,0,0,1-.5,9.2l-16.6,78.7a35.8,35.8,0,0,1-5.8,13.1l-3.5,5a34.6,34.6,0,0,0-1.2,38.8,94.4,94.4,0,0,0,50.7,39.1,73.7,73.7,0,0,0,10.5,2.8l45.4,9.1a96.2,96.2,0,0,0,18.6,1.9h56.7c8.6,0,15.2-7.1,15.4-15.7a15.3,15.3,0,0,1,13.3-15l32.7-4.3a105.2,105.2,0,0,0,71.6-43.1l19.4-27.2a90.7,90.7,0,0,1,22-21.7l57.9-40a22.5,22.5,0,0,1,13-4.1,21.5,21.5,0,0,1,18.9,30.9l-12.6,26.4a26.9,26.9,0,0,0-1.9,6.1L-6135-516a128.7,128.7,0,0,0-.1,38.7l8.7,58.5a49.1,49.1,0,0,0,40.3,41.3l16.8,2.8a180.8,180.8,0,0,1,64.2,23.9l41.6,25.4a181.9,181.9,0,0,1,64.6,67.5,182.9,182.9,0,0,1,19.6,122.2l-.7,4.1a183,183,0,0,1-54.8,99.8l-80.6,75.3a8.2,8.2,0,0,1-13.8-5.3c-.8-8.8-12.9-10.5-16-2.2l-23.3,62.4-28,77.9c-7.2,20-27.8,32.4-48.6,28.2a42.8,42.8,0,0,0-49,28.7l-6.1,18.7a42.8,42.8,0,0,1-40.6,29.5h-68.1a64,64,0,0,0-60.2,41.9,64.5,64.5,0,0,1-60.5,42.5h-59.2c-61.5,0-120.1,22.7-168,61.5a16.1,16.1,0,0,1-3,2.1l-99.6,56.2a22,22,0,0,1-9.2,2.9,21.8,21.8,0,0,1-23.6-21.8V-2387.5h623l-63.9,144.5-76.7,41.8-3.1,147.7,95.8,25.7v61.1l73.5,73.8,159.8-57.8,54.3-106,3.2-89.9-35.2-41.8,54.3-32.1v-52.4L-4840-2304H-532.8l43.1,76.2,8.9,14.1a223.2,223.2,0,0,0,172,104.1l10.1.8c38.8,2.9,75.1-22.1,84.1-60.1a24.4,24.4,0,0,1,30.8-17.7c10.9,3.4,17.9,14.2,17.1,25.7l-9.2,126.2c-2.4,33.3-15,65.2-36.9,90.4a123.2,123.2,0,0,0-23.3,122l4.7,13.1a24.1,24.1,0,0,0,10.8,13.1L-74-1711.6a106,106,0,0,1,50.7,69.8l5.6,26.2c6.5,30.8,28.8,55.1,58.1,66.4a24.8,24.8,0,0,1,11.2,8.8l48.1,69.3a306.7,306.7,0,0,1,54.6,174.7v488.1c0,95.2-52.2,181.7-134.6,228.6a84.7,84.7,0,0,0-36.9,42.9L-55.1-438a84.5,84.5,0,0,1-25.5,35.2L-383.2-260.5a84.7,84.7,0,0,1-9.2,6.5l-159.3,97a28.7,28.7,0,0,1-6.7,3l-86.1,26.3a29.3,29.3,0,0,0-20.8,28.2v58a29.2,29.2,0,0,1-7.1,19.2l-5.3,6.2c-13.5,15.9-38.8,12.9-48.4-5.8a32,32,0,0,1-3.1-12.5l-1.7-34.8a29.4,29.4,0,0,0-29.9-28.1l-21.6.5a229.6,229.6,0,0,0-181,94.7l-75.7,104.3a160.4,160.4,0,0,0-18.3,32.6l-20.3,48.9c-20,47.9-9.3,102.7,26.1,140.6a124.2,124.2,0,0,1,9.3,11.1l95.9,128.5,53.4,76.7a57.5,57.5,0,0,0,46.6,24.2,56.2,56.2,0,0,1,40.5,17.6l38.6,40.9A57.1,57.1,0,0,1-755,643.4l47.3,133.8c1.5,4.1,3.1,8.2,4.9,12.2l16.7,38.1a178.5,178.5,0,0,1,1,141l-4.9,11.8a59.1,59.1,0,0,1-5,9.3l-117.6,177.2-40.1,80.8-80,86.1a45.1,45.1,0,0,1-33,14.8,45,45,0,0,0-42.1,28.6l-21.1,53.7a45,45,0,0,1-41.7,28.7c-18.1,0-32.6-15.2-32.1-33.4l2.4-84.4,2.8-55a12,12,0,0,0-7.8-12l-66.9-25.2a11.8,11.8,0,0,0-9.9.7l-20.9,11.3a12.1,12.1,0,0,1-17.8-10.7,12.1,12.1,0,0,0-15.8-11.6c-42.6,13.8-88-11.1-99.7-54.5-9.3-34.7-35.5-62.4-69.1-74.6l-93.1-34.1a56.2,56.2,0,0,1-36.8-52.8v-1H-1559a74.6,74.6,0,0,0-62.1,33.4,75.1,75.1,0,0,0-10.5,58.9l7.6,32.1a194.1,194.1,0,0,1-11.9,123.9l-48.9,109.2a9.7,9.7,0,0,0-.9,5l9,92.7a9.8,9.8,0,0,0,9.7,9h24.4a9.8,9.8,0,0,1,9.2,6.5l30.4,83.9a9.8,9.8,0,0,0,17.9,1.4,9.8,9.8,0,0,1,17.9,1.6l17.6,52.9c12.6,38.1-10.2,78.7-49,87.6l-10.6,2.5a68.3,68.3,0,0,1-15,1.7h-20.5c-37.2,0-66.3-32.2-62.8-69.4a9.9,9.9,0,0,0-3.1-8.1l-35.1-32.9a10.6,10.6,0,0,0-10.7-2.3l-7.3,2.4a10.8,10.8,0,0,0-7.3,10.3v26.1a11.3,11.3,0,0,1-4.4,9,10.7,10.7,0,0,1-17-8.3l-3.1-85.1a9.2,9.2,0,0,1,.5-3.7l44.2-139.3a35.6,35.6,0,0,0-5.3-31.6,34.8,34.8,0,0,1-6.1-27.2l13.3-69.9a54.4,54.4,0,0,0,.5-16.1l-8-62.7a52.8,52.8,0,0,0-11.1-25.8,51.8,51.8,0,0,1-10-41.3l2.7-14.2a51.7,51.7,0,0,0-3-29.1L-1865.4,893-1899,743.9l-55.3-122.5a8,8,0,0,0-15.3,2.4v46.6a8,8,0,0,1-5.7,7.7l-35.4,10.5a8.1,8.1,0,0,0-5,11.2l7.3,15.7a8.1,8.1,0,0,1-4.4,10.9l-27.3,10.6-63.7,56.1-18.1,17.5a37.2,37.2,0,0,1-37.4,8.8l-8.4-2.8a36.7,36.7,0,0,0-11.4-1.8h-38.4a37.5,37.5,0,0,1-22.4-7.1,37.5,37.5,0,0,1-14-40.9l20.6-70.5a162.7,162.7,0,0,0,3.3-77.2l-19.1-95.1a29.1,29.1,0,0,0-1.2-3.9l-29.5-70.9a20.2,20.2,0,0,0-25.1-11.6,20.1,20.1,0,0,1-21.8-5.8l-12.5-14.2a20.2,20.2,0,0,1-5.1-12.6l-1.4-30.5a20.3,20.3,0,0,0-10.6-17l-44.5-24.5a63.4,63.4,0,0,1-8.7-5.9l-54.4-43.3a64.8,64.8,0,0,0-17-9.6,62.5,62.5,0,0,1-37.4-42.2l-30.9-74.8L-2659.1,130-2673,80a30.7,30.7,0,0,1-5.9-20.1l-9.3-48-5.6,14.5a28.8,28.8,0,0,1-43.9,8.2l-10.8-9.1c-13.6-11.4-33.2-9-43,5.8a29.1,29.1,0,0,0-2.4,28.1l13.3,29.4a29.5,29.5,0,0,1,1.7,5l9.7,73.6a6.5,6.5,0,0,1-10.8,6.2l-37.5-37.3c-8.7-8.6-25.6-69-37.8-69l5.3,55.6a46.8,46.8,0,0,1-24.9-7.2l-11.2-7.2c-44.3-44.7-48.9,27.8-90.8,7.1l-6.5-69.2c-20.8,0-145.4,51-162.5,62.8l9.6-13.4c-4.9,3.4-7-.5-12.4,1.9l-19-7.3c-5.2,2.3-6.5,9.9-12,11.4l45.9,14.7a18.8,18.8,0,0,1-23.7-18.3v-245l-606.9-197.1Z"/></g><path class="d" d="M-3,530.9,185.4,304.5a25.3,25.3,0,0,1,39.7,1.1L392.6,530.9Z"/><path class="d" d="M-3,530.9,185.4,304.5a25.3,25.3,0,0,1,39.7,1.1L392.6,530.9Z"/><path class="d" d="M-3,530.9,185.4,304.5a25.3,25.3,0,0,1,39.7,1.1L392.6,530.9Z"/><path class="e" d="M239.3,530.9,363.1,382a25.3,25.3,0,0,1,39.7,1.1L512.7,530.9Z"/><path class="e" d="M239.3,530.9,363.1,382a25.3,25.3,0,0,1,39.7,1.1L512.7,530.9Z"/><path class="e" d="M239.3,530.9,363.1,382a25.3,25.3,0,0,1,39.7,1.1L512.7,530.9Z"/><polygon class="f" points="123 379.5 205.7 275.9 275.1 372.9 225.8 337.5 194.8 372.9 185.6 336.2 123 379.5"/><polygon class="f" points="309.6 445.4 381.7 354.9 442.4 439.6 399.3 408.7 372.2 439.6 364.2 407.6 309.6 445.4"/></svg>